<mxfile host="app.diagrams.net" modified="2023-12-26T16:16:59.275Z" agent="Mozilla/5.0 (Windows NT 10.0; Win64; x64) AppleWebKit/537.36 (KHTML, like Gecko) Chrome/120.0.0.0 Safari/537.36 Edg/120.0.0.0" version="22.1.11" etag="ITA5YoHW_FU_lGZjTHgk" type="github">
  <diagram name="Page-1" id="3G929lw6NgnCE74Y856r">
    <mxGraphModel>
      <root>
        <mxCell id="0" />
        <mxCell id="1" parent="0" />
      </root>
    </mxGraphModel>
  </diagram>
</mxfile>
